HIERARCHY
ROOT Hips
{
	OFFSET 0.00000 0.00000 0.00000
	CHANNELS 6 Xposition Yposition Zposition Zrotation Yrotation Xrotation 
	JOINT LHipJoint
	{
		OFFSET 0 0 0
		CHANNELS 3 Zrotation Yrotation Xrotation
		JOINT LeftHip
		{
			OFFSET 1.84395 -1.68683 0.74144
			CHANNELS 3 Zrotation Yrotation Xrotation
			JOINT LeftKnee
			{
				OFFSET 2.27037 -6.23779 0.00000
				CHANNELS 3 Zrotation Yrotation Xrotation
				JOINT LeftAnkle
				{
					OFFSET 2.56918 -7.05877 0.00000
					CHANNELS 3 Zrotation Yrotation Xrotation
					JOINT LeftToe
					{
						OFFSET 0.22276 -0.61202 1.71784
						CHANNELS 3 Zrotation Yrotation Xrotation
						End Site
						{
							OFFSET 0.00000 -0.00000 0.91613
						}
					}
				}
			}
		}
	}
	JOINT RHipJoint
	{
		OFFSET 0 0 0
		CHANNELS 3 Zrotation Yrotation Xrotation
		JOINT RightHip
		{
			OFFSET -1.76833 -1.68684 0.74144
			CHANNELS 3 Zrotation Yrotation Xrotation
			JOINT RightKnee
			{
				OFFSET -2.49360 -6.85110 0.00000
				CHANNELS 3 Zrotation Yrotation Xrotation
				JOINT RightAnkle
				{
					OFFSET -2.55538 -7.02085 0.00000
					CHANNELS 3 Zrotation Yrotation Xrotation
					JOINT RightToe
					{
						OFFSET -0.21516 -0.59115 1.68050
						CHANNELS 3 Zrotation Yrotation Xrotation
						End Site
						{
							OFFSET -0.00000 -0.00000 0.89604
						}
					}
				}
			}
		}
	}
	JOINT lowerback
	{
		OFFSET 0 0 0
		CHANNELS 3 Zrotation Yrotation Xrotation
		JOINT Chest
		{
			OFFSET 0.06382 1.72312 -0.19613
			CHANNELS 3 Zrotation Yrotation Xrotation
			JOINT Chest2
			{
				OFFSET -0.00055 1.73507 0.23859
				CHANNELS 3 Zrotation Yrotation Xrotation
				JOINT lowerneck
				{
					OFFSET 0 0 0
					CHANNELS 3 Zrotation Yrotation Xrotation
					JOINT Neck
					{
						OFFSET 0.03638 1.65562 0.09633
						CHANNELS 3 Zrotation Yrotation Xrotation
						JOINT Head
						{
							OFFSET 0.06388 1.62807 -0.32386
							CHANNELS 3 Zrotation Yrotation Xrotation
							End Site
							{
								OFFSET 0.00995 1.67644 -0.12021
							}
						}
					}
				}
				JOINT LeftCollar
				{
					OFFSET 0 0 0
					CHANNELS 3 Zrotation Yrotation Xrotation
					JOINT LeftShoulder
					{
						OFFSET 3.09648 1.42991 0.28122
CHANNELS 3 Zrotation Xrotation Yrotation
						JOINT LeftElbow
						{
OFFSET 0 -5.118780 -0.000000
CHANNELS 3 Zrotation Xrotation Yrotation
							JOINT LeftWrist
							{
OFFSET 0 -3.599710 0.000000
CHANNELS 3 Zrotation Xrotation Yrotation
								JOINT lhand
								{
									OFFSET 0 0 0
CHANNELS 3 Zrotation Xrotation Yrotation
									JOINT LFingers
									{
OFFSET 0 -0.628770 0.000000
CHANNELS 3 Zrotation Xrotation Yrotation
										End Site
										{
OFFSET 0 -0.506930 0.000000
										}
									}
								}
								JOINT LThumb
								{
OFFSET 0 0.000000 0.000000
CHANNELS 3 Zrotation Xrotation Yrotation
									End Site
									{
OFFSET 0 -0.514670 0.514670
									}
								}
							}
						}
					}
				}
				JOINT RightCollar
				{
					OFFSET 0 0 0
					CHANNELS 3 Zrotation Yrotation Xrotation
					JOINT RightShoulder
					{
						OFFSET -3.33565 1.14597 0.05047
CHANNELS 3 Zrotation Xrotation Yrotation
						JOINT RightElbow
						{
OFFSET 0 -5.490200 0.000000
CHANNELS 3 Zrotation Xrotation Yrotation
							JOINT RightWrist
							{
OFFSET 0 -3.206590 -0.000000
CHANNELS 3 Zrotation Xrotation Yrotation
								JOINT rhand
								{
									OFFSET 0 0 0
CHANNELS 3 Zrotation Xrotation Yrotation
									JOINT RFingers
									{
OFFSET 0 -0.691880 0.000000
CHANNELS 3 Zrotation Xrotation Yrotation
										End Site
										{
OFFSET 0 -0.557810 0.000000
										}
									}
								}
								JOINT RThumb
								{
OFFSET 0 0.000000 0.000000
CHANNELS 3 Zrotation Xrotation Yrotation
									End Site
									{
OFFSET 0 -0.566330 0.566330
									}
								}
							}
						}
					}
				}
			}
		}
	}
}
MOTION
Frames: 8
Frame Time: 0.008333333333333333
1.162427 17.677592 8.122636 -7.428151 12.210786 13.578671 0.000000 0.000000 0.000000 -14.642585 -29.089414 2.196339 0.001742 0.269820 0.741393 -1.965952 24.800832 -16.920980 0.053518 -1.492137 -4.104084 0.000000 0.000000 0.000000 25.539437 32.336525 13.169046 -0.011995 0.706555 -1.941690 -0.729881 -29.024362 -43.723848 -1.700833 -8.212665 23.362126 3.648673 0.380782 10.136260 0.690099 1.190919 -6.629273 -1.547369 0.283947 -12.923076 5.140770 4.344941 -14.911635 -0.206049 5.111712 33.778335 -0.127582 2.886860 14.198683 0.000000 0.000000 0.000000 24.434044 -32.490656 -89.100379 69.413659 -58.336424 42.271293 39.923288 -68.362522 24.048562 0.000000 0.000000 0.000000 -7.125000 0.000000 0.000000 6.344916 -0.051348 6.390015 0.000000 0.000000 0.000000 2.423545 -1.241296 54.097862 -73.032810 -58.883348 -45.361129 -24.906806 19.956006 37.778983 0.000000 0.000000 0.000000 7.125000 0.000000 0.000000 14.344113 70.015864 -8.637409
1.173449 17.680144 8.131722 -7.508895 11.522504 13.093990 0.000000 0.000000 0.000000 -14.955608 -28.448688 3.010912 0.000707 0.174472 0.479381 -1.998464 25.026557 -17.226834 0.045845 -1.381397 -3.798876 0.000000 0.000000 0.000000 25.456754 31.545501 13.149224 -0.009340 0.623516 -1.713284 -0.394928 -28.484311 -41.638679 -1.478532 -7.680419 21.748860 3.911608 0.474479 10.202842 0.606572 1.348783 -6.515460 -1.820404 0.333700 -12.817898 5.014695 4.154874 -14.913251 -0.094144 4.833588 34.107807 -0.103205 2.767775 14.330462 0.000000 0.000000 0.000000 28.999131 -32.446153 -86.481211 69.675400 -58.380095 42.494114 39.483872 -69.064820 23.925315 0.000000 0.000000 0.000000 -7.125000 0.000000 0.000000 6.113746 0.237269 6.123468 0.000000 0.000000 0.000000 2.261824 -2.369852 57.622569 -72.716819 -58.840626 -45.090591 -23.151714 19.207720 37.585046 0.000000 0.000000 0.000000 7.125000 0.000000 0.000000 16.391995 69.270821 -9.619386
1.192999 17.681526 8.139770 -7.688213 11.087217 12.687734 0.000000 0.000000 0.000000 -15.090548 -27.979048 3.536281 0.000641 0.159973 0.439604 -1.997419 25.077671 -17.467259 0.039752 -1.286493 -3.537488 0.000000 0.000000 0.000000 25.073221 30.095448 12.444026 -0.005885 0.493220 -1.355181 0.022982 -27.758949 -38.748695 -1.166060 -6.849007 19.271120 4.101069 0.392040 10.129258 0.593473 1.258456 -6.444094 -1.920737 0.277023 -12.693090 5.009901 4.069378 -14.849852 0.075947 4.651425 34.389592 -0.062060 2.712663 14.434231 0.000000 0.000000 0.000000 30.915986 -32.530629 -85.567828 69.840756 -58.407272 42.634924 39.192614 -69.417411 24.112988 0.000000 0.000000 0.000000 -7.125000 0.000000 0.000000 5.902178 0.112731 5.922040 0.000000 0.000000 0.000000 1.273405 -2.704354 58.229018 -73.719707 -58.973783 -45.949499 -22.981376 20.116592 37.530241 0.000000 0.000000 0.000000 7.125000 0.000000 0.000000 16.543183 69.165236 -9.671833
1.218656 17.683624 8.146513 -7.970681 10.908088 12.476175 0.000000 0.000000 0.000000 -14.988578 -27.855361 3.694003 0.001236 0.227916 0.626267 -1.975845 25.032292 -17.704525 0.031444 -1.144162 -3.145507 0.000000 0.000000 0.000000 24.521027 28.375043 11.166118 -0.002528 0.320498 -0.880584 0.400371 -26.970368 -35.673005 -0.852087 -5.883565 16.448077 4.200622 0.127102 9.836350 0.659112 0.906538 -6.452446 -1.828416 0.108333 -12.545796 5.176382 4.137790 -14.678578 0.201899 4.662635 34.571728 -0.039516 2.755668 14.483122 0.000000 0.000000 0.000000 29.934146 -32.639012 -86.003802 70.320988 -58.484843 43.044211 39.212210 -69.083689 24.339533 0.000000 0.000000 0.000000 -7.125000 0.000000 0.000000 5.864893 -0.157431 5.912069 0.000000 0.000000 0.000000 -0.459320 -2.403346 56.438944 -75.160477 -59.150966 -47.185245 -24.698698 21.595885 37.519467 0.000000 0.000000 0.000000 7.125000 0.000000 0.000000 14.303084 69.701679 -8.511882
1.245785 17.687066 8.153326 -8.318124 10.902972 12.511801 0.000000 0.000000 0.000000 -14.638093 -28.043119 3.448188 0.003207 0.363017 0.997361 -1.934303 24.895191 -17.944919 0.020514 -0.924408 -2.540927 0.000000 0.000000 0.000000 23.978245 26.801340 9.592687 -0.000267 0.110180 -0.302684 0.637015 -26.183349 -33.085836 -0.618080 -5.030056 13.994562 4.184770 -0.286905 9.348466 0.739295 0.328559 -6.553626 -1.611815 -0.158709 -12.400229 5.516489 4.356857 -14.423244 0.367115 4.832434 34.650690 -0.007742 2.893030 14.477648 0.000000 0.000000 0.000000 26.321273 -32.606372 -87.384873 71.141338 -58.612551 43.744039 39.527993 -68.350435 24.505214 0.000000 0.000000 0.000000 -7.125000 0.000000 0.000000 6.013737 -0.454025 6.094782 0.000000 0.000000 0.000000 -2.881016 -1.716348 53.240764 -76.703053 -59.321069 -48.510794 -26.717369 22.565996 37.432394 0.000000 0.000000 0.000000 7.125000 0.000000 0.000000 11.483889 70.269151 -6.962845
1.272590 17.688500 8.161542 -8.722534 10.981990 12.648446 0.000000 0.000000 0.000000 -14.115438 -28.277066 2.978228 0.006632 0.524691 1.441744 -1.873981 24.634853 -18.051199 0.012733 -0.727199 -1.998474 0.000000 0.000000 0.000000 23.693319 25.579500 8.204482 -0.000209 -0.087744 0.241131 0.730325 -25.517627 -31.410550 -0.492160 -4.496595 12.478434 4.144503 -0.776897 8.866294 0.763547 -0.361198 -6.695867 -1.427133 -0.482731 -12.309501 6.006883 4.666059 -14.130124 0.631366 5.057440 34.616001 0.044808 3.085458 14.418465 0.000000 0.000000 0.000000 20.824501 -32.417818 -89.523635 72.086214 -58.751736 44.551230 39.836808 -67.775450 24.890235 0.000000 0.000000 0.000000 -7.125000 0.000000 0.000000 6.108686 -1.005579 6.250428 0.000000 0.000000 0.000000 -5.904734 -0.753294 49.401182 -78.755531 -59.515273 -50.277980 -27.280055 23.259605 37.418608 0.000000 0.000000 0.000000 7.125000 0.000000 0.000000 10.690383 70.439030 -6.518767
1.300546 17.685523 8.170771 -9.144226 11.102332 12.716256 0.000000 0.000000 0.000000 -13.602640 -28.396166 2.540710 0.011185 0.682686 1.876116 -1.798621 24.257253 -18.006138 0.008665 -0.601279 -1.652273 0.000000 0.000000 0.000000 23.685293 24.588761 7.216405 -0.001367 -0.235361 0.646650 0.765832 -25.071611 -30.428507 -0.431836 -4.216507 11.686624 4.155754 -1.252553 8.593320 0.729901 -1.020177 -6.821113 -1.343301 -0.801907 -12.327220 6.535168 4.991613 -13.865793 0.917663 5.289500 34.491832 0.099684 3.287711 14.328179 0.000000 0.000000 0.000000 14.306843 -32.169564 -92.446176 73.080458 -58.889856 45.401931 40.077455 -67.341237 25.372624 0.000000 0.000000 0.000000 -7.125000 0.000000 0.000000 6.139886 -1.648693 6.350066 0.000000 0.000000 0.000000 -9.377448 0.487321 45.374117 -81.699403 -59.734364 -52.818001 -26.179906 23.516287 37.761553 0.000000 0.000000 0.000000 7.125000 0.000000 0.000000 12.609040 70.411663 -7.693367
1.327920 17.680001 8.181154 -9.547006 11.231298 12.684250 0.000000 0.000000 0.000000 -13.159542 -28.327684 2.201954 0.016222 0.821643 2.258187 -1.700823 23.738328 -17.881304 0.006356 -0.513630 -1.411311 0.000000 0.000000 0.000000 23.865522 23.743392 6.555404 -0.002944 -0.348599 0.957868 0.795385 -24.836628 -29.821075 -0.392282 -4.021321 11.136813 4.164983 -1.639856 8.588785 0.703343 -1.545834 -6.915969 -1.272670 -1.058090 -12.467334 6.978475 5.298603 -13.678191 1.101394 5.556255 34.320685 0.134032 3.479447 14.235620 0.000000 0.000000 0.000000 7.329418 -31.832070 -96.153288 74.157792 -59.029808 46.324920 40.000397 -66.626016 25.780204 0.000000 0.000000 0.000000 -7.125000 0.000000 0.000000 6.002775 -2.094725 6.252075 0.000000 0.000000 0.000000 -13.136995 1.999536 41.488612 -85.380011 -59.915943 -56.000200 -24.195419 23.124540 38.363292 0.000000 0.000000 0.000000 7.125000 0.000000 0.000000 16.029261 70.336322 -9.783648
